<svg width="53" height="52" viewBox="0 0 53 52" fill="none" xmlns="http://www.w3.org/2000/svg">
<path d="M36.1945 17.4028L36.1941 17.403L18.6902 27.001L18.6894 27.0014C18.5196 27.0942 18.4711 27.2284 18.4789 27.3411C18.4871 27.4599 18.56 27.5852 18.7187 27.649C18.7188 27.6491 18.7189 27.6491 18.7191 27.6492L22.4551 29.139L33.074 20.2442C33.0744 20.2438 33.0748 20.2435 33.0752 20.2431C33.4032 19.9664 33.8118 20.0528 34.0416 20.2633C34.1565 20.3685 34.2504 20.5221 34.2719 20.7089C34.2946 20.9064 34.2311 21.0992 34.1003 21.2504L36.1945 17.4028ZM36.1945 17.4028C36.3448 17.3202 36.5154 17.3366 36.6456 17.4217C36.772 17.5043 36.8304 17.6285 36.8058 17.7675L36.8057 17.7684L34.0869 33.2729C34.0869 33.2731 34.0868 33.2733 34.0868 33.2734C34.0485 33.4858 33.7845 33.6567 33.5192 33.5502L33.5178 33.5497L28.8123 31.676L28.4818 31.5444L28.2491 31.8136L25.851 34.5882L25.8505 34.5888C25.736 34.7217 25.5566 34.7621 25.3878 34.7054C25.2274 34.6515 25.1243 34.5279 25.1243 34.348V31.6445L34.0995 21.2513L36.1945 17.4028ZM18.3466 28.5772L18.3476 28.5776L22.362 30.1785L22.6394 30.2891L22.8683 30.0974L31.0769 23.2214L24.2459 31.1317L24.1243 31.2725V31.4585V34.348C24.1243 35.0152 24.5593 35.482 25.0693 35.6534C25.5708 35.8219 26.1939 35.7224 26.6081 35.2414L28.773 32.7367L33.1465 34.4782C33.1467 34.4782 33.1469 34.4783 33.1471 34.4784C33.954 34.8021 34.913 34.3344 35.0713 33.4489L35.0716 33.4473L37.7905 17.9419C37.8943 17.3558 37.6071 16.8555 37.1926 16.5846C36.7818 16.3161 36.216 16.25 35.713 16.5263L18.2101 26.1238C17.142 26.7071 17.2892 28.1529 18.3466 28.5772ZM0.820312 26.138C0.820312 12.4561 11.9117 1.36475 25.5936 1.36475H26.797C40.4789 1.36475 51.5703 12.4561 51.5703 26.138C51.5703 39.8199 40.4789 50.9113 26.7971 50.9113H25.5936C11.9117 50.9113 0.820312 39.8199 0.820312 26.138Z" fill="#DAD4F7" stroke="#212529"/>
</svg>
